<?xml version="1.0" encoding="utf-8"?>
<!-- Generator: Adobe Illustrator 23.0.0, SVG Export Plug-In . SVG Version: 6.00 Build 0)  -->
<svg version="1.1" id="Layer_1" xmlns="http://www.w3.org/2000/svg" xmlns:xlink="http://www.w3.org/1999/xlink" x="0px" y="0px"
	 viewBox="0 0 18 18" style="enable-background:new 0 0 18 18;" xml:space="preserve">
<style type="text/css">
	.st0{fill:#984CF5;}
</style>
<path class="st0" d="M16.7,0.2L9,7.9L1.3,0.2C1-0.1,0.5-0.1,0.2,0.2c-0.3,0.3-0.3,0.8,0,1.1L7.9,9l-7.7,7.7c-0.3,0.3-0.3,0.8,0,1.1
	c0.3,0.3,0.8,0.3,1.1,0L9,10.1l7.7,7.7c0.3,0.3,0.8,0.3,1.1,0c0.3-0.3,0.3-0.8,0-1.1L10.1,9l7.7-7.7c0.3-0.3,0.3-0.8,0-1.1
	C17.5-0.1,17-0.1,16.7,0.2z"/>
</svg>
