<svg width="17" height="13" viewBox="0 0 17 13" fill="none" xmlns="http://www.w3.org/2000/svg">
<path d="M0.691406 1.5C0.691406 1.23478 0.796763 0.98043 0.9843 0.792893C1.17184 0.605357 1.42619 0.5 1.69141 0.5H15.6914C15.9566 0.5 16.211 0.605357 16.3985 0.792893C16.5861 0.98043 16.6914 1.23478 16.6914 1.5C16.6914 1.76522 16.5861 2.01957 16.3985 2.20711C16.211 2.39464 15.9566 2.5 15.6914 2.5H1.69141C1.42619 2.5 1.17184 2.39464 0.9843 2.20711C0.796763 2.01957 0.691406 1.76522 0.691406 1.5ZM2.69141 6.5C2.69141 6.23478 2.79676 5.98043 2.9843 5.79289C3.17184 5.60536 3.42619 5.5 3.69141 5.5H13.6914C13.9566 5.5 14.211 5.60536 14.3985 5.79289C14.5861 5.98043 14.6914 6.23478 14.6914 6.5C14.6914 6.76522 14.5861 7.01957 14.3985 7.20711C14.211 7.39464 13.9566 7.5 13.6914 7.5H3.69141C3.42619 7.5 3.17184 7.39464 2.9843 7.20711C2.79676 7.01957 2.69141 6.76522 2.69141 6.5ZM4.69141 11.5C4.69141 11.2348 4.79676 10.9804 4.9843 10.7929C5.17184 10.6054 5.42619 10.5 5.69141 10.5H11.6914C11.9566 10.5 12.211 10.6054 12.3985 10.7929C12.586 10.9804 12.6914 11.2348 12.6914 11.5C12.6914 11.7652 12.586 12.0196 12.3985 12.2071C12.211 12.3946 11.9566 12.5 11.6914 12.5H5.69141C5.42619 12.5 5.17184 12.3946 4.9843 12.2071C4.79676 12.0196 4.69141 11.7652 4.69141 11.5Z" fill="#8A8E93"/>
</svg>
