<?xml version="1.0" encoding="utf-8"?>
<!-- Generator: Adobe Illustrator 23.0.0, SVG Export Plug-In . SVG Version: 6.00 Build 0)  -->
<svg version="1.1" id="Layer_1" xmlns="http://www.w3.org/2000/svg" xmlns:xlink="http://www.w3.org/1999/xlink" x="0px" y="0px"
	 viewBox="0 0 30 26" style="enable-background:new 0 0 30 26;" xml:space="preserve">
<style type="text/css">
	.st0{fill:#984CF5;}
	.st1{fill:#FFFFFF;}
</style>
<g>
	<path class="st0" d="M27.9,26H2.1C1,26,0,25,0,23.9V2.1C0,1,1,0,2.1,0h25.7C29,0,30,1,30,2.1v21.7C30,25,29,26,27.9,26z"/>
	<g>
		<path class="st1" d="M7.6,9H3.6C3.3,9,3.1,8.7,3.1,8.5V4.5C3.1,4.2,3.3,4,3.6,4h3.9c0.3,0,0.5,0.2,0.5,0.5v3.9
			C8.1,8.7,7.8,9,7.6,9z M4.1,8H7V5H4.1V8z"/>
		<path class="st1" d="M26,7.4H10.4C10,7.4,9.6,7,9.6,6.5c0-0.5,0.4-0.9,0.9-0.9H26c0.5,0,0.9,0.4,0.9,0.9C26.9,7,26.5,7.4,26,7.4z"
			/>
		<path class="st1" d="M7.6,15.5H3.6c-0.3,0-0.5-0.2-0.5-0.5V11c0-0.3,0.2-0.5,0.5-0.5h3.9c0.3,0,0.5,0.2,0.5,0.5V15
			C8.1,15.2,7.8,15.5,7.6,15.5z M4.1,14.5H7v-2.9H4.1V14.5z"/>
		<path class="st1" d="M26,13.9H10.4c-0.5,0-0.9-0.4-0.9-0.9c0-0.5,0.4-0.9,0.9-0.9H26c0.5,0,0.9,0.4,0.9,0.9
			C26.9,13.5,26.5,13.9,26,13.9z"/>
		<path class="st1" d="M7.6,22H3.6c-0.3,0-0.5-0.2-0.5-0.5v-3.9c0-0.3,0.2-0.5,0.5-0.5h3.9c0.3,0,0.5,0.2,0.5,0.5v3.9
			C8.1,21.8,7.8,22,7.6,22z M4.1,21H7V18H4.1V21z"/>
		<path class="st1" d="M26,20.4H10.4c-0.5,0-0.9-0.4-0.9-0.9s0.4-0.9,0.9-0.9H26c0.5,0,0.9,0.4,0.9,0.9S26.5,20.4,26,20.4z"/>
	</g>
</g>
</svg>
